<?xml version="1.0" encoding="UTF-8" standalone="no"?><svg xmlns="http://www.w3.org/2000/svg" xmlns:xlink="http://www.w3.org/1999/xlink" clip-rule="evenodd" stroke-miterlimit="4.00" viewBox="0 0 1024 768"><desc>SVG generated by Keynote</desc><defs></defs><g transform="matrix(1.00, 0.00, -0.00, -1.00, 0.0, 768.0)"><path d="M 0.0 768.0 L 1024.0 768.0 L 1024.0 0.0 L 0.0 0.0 Z M 0.0 768.0 " fill="#FEFFFF"></path><text xml:space="preserve" font-family="Helvetica-Light" font-size="40.0" fill="#000000" transform="matrix(1.00, 0.00, -0.00, -1.00, 462.0, 686.0)">T</text><text xml:space="preserve" font-family="Helvetica-Light" font-size="40.0" fill="#000000" transform="matrix(1.00, 0.00, -0.00, -1.00, 484.2, 686.0)">i</text><text xml:space="preserve" font-family="Helvetica-Light" font-size="40.0" fill="#000000" transform="matrix(1.00, 0.00, -0.00, -1.00, 493.1, 686.0)">e</text><text xml:space="preserve" font-family="Helvetica-Light" font-size="40.0" fill="#000000" transform="matrix(1.00, 0.00, -0.00, -1.00, 515.4, 686.0)">r</text><text xml:space="preserve" font-family="Helvetica-Light" font-size="40.0" fill="#000000" transform="matrix(1.00, 0.00, -0.00, -1.00, 528.7, 686.0)"> </text><text xml:space="preserve" font-family="Helvetica-Light" font-size="40.0" fill="#000000" transform="matrix(1.00, 0.00, -0.00, -1.00, 539.8, 686.0)">2</text><text xml:space="preserve" font-family="Helvetica-Light" font-size="40.0" fill="#000000" transform="matrix(1.00, 0.00, -0.00, -1.00, 562.0, 686.0)"> </text><text xml:space="preserve" font-family="Helvetica-Light" font-size="32.0" fill="#000000" transform="matrix(1.00, 0.00, -0.00, -1.00, 291.0, 646.0)">I</text><text xml:space="preserve" font-family="Helvetica-Light" font-size="32.0" fill="#000000" transform="matrix(1.00, 0.00, -0.00, -1.00, 299.9, 646.0)">n</text><text xml:space="preserve" font-family="Helvetica-Light" font-size="32.0" fill="#000000" transform="matrix(1.00, 0.00, -0.00, -1.00, 317.7, 646.0)">c</text><text xml:space="preserve" font-family="Helvetica-Light" font-size="32.0" fill="#000000" transform="matrix(1.00, 0.00, -0.00, -1.00, 335.5, 646.0)">l</text><text xml:space="preserve" font-family="Helvetica-Light" font-size="32.0" fill="#000000" transform="matrix(1.00, 0.00, -0.00, -1.00, 342.6, 646.0)">u</text><text xml:space="preserve" font-family="Helvetica-Light" font-size="32.0" fill="#000000" transform="matrix(1.00, 0.00, -0.00, -1.00, 360.4, 646.0)">d</text><text xml:space="preserve" font-family="Helvetica-Light" font-size="32.0" fill="#000000" transform="matrix(1.00, 0.00, -0.00, -1.00, 379.9, 646.0)">e</text><text xml:space="preserve" font-family="Helvetica-Light" font-size="32.0" fill="#000000" transform="matrix(1.00, 0.00, -0.00, -1.00, 397.7, 646.0)">d</text><text xml:space="preserve" font-family="Helvetica-Light" font-size="32.0" fill="#000000" transform="matrix(1.00, 0.00, -0.00, -1.00, 417.3, 646.0)"> </text><text xml:space="preserve" font-family="Helvetica-Light" font-size="32.0" fill="#000000" transform="matrix(1.00, 0.00, -0.00, -1.00, 426.2, 646.0)">i</text><text xml:space="preserve" font-family="Helvetica-Light" font-size="32.0" fill="#000000" transform="matrix(1.00, 0.00, -0.00, -1.00, 433.3, 646.0)">n</text><text xml:space="preserve" font-family="Helvetica-Light" font-size="32.0" fill="#000000" transform="matrix(1.00, 0.00, -0.00, -1.00, 451.1, 646.0)"> </text><text xml:space="preserve" font-family="Helvetica-Light" font-size="32.0" fill="#000000" transform="matrix(1.00, 0.00, -0.00, -1.00, 460.0, 646.0)">a</text><text xml:space="preserve" font-family="Helvetica-Light" font-size="32.0" fill="#000000" transform="matrix(1.00, 0.00, -0.00, -1.00, 477.8, 646.0)"> </text><text xml:space="preserve" font-family="Helvetica-Light" font-size="32.0" fill="#000000" transform="matrix(1.00, 0.00, -0.00, -1.00, 486.6, 646.0)">m</text><text xml:space="preserve" font-family="Helvetica-Light" font-size="32.0" fill="#000000" transform="matrix(1.00, 0.00, -0.00, -1.00, 513.3, 646.0)">a</text><text xml:space="preserve" font-family="Helvetica-Light" font-size="32.0" fill="#000000" transform="matrix(1.00, 0.00, -0.00, -1.00, 531.1, 646.0)">j</text><text xml:space="preserve" font-family="Helvetica-Light" font-size="32.0" fill="#000000" transform="matrix(1.00, 0.00, -0.00, -1.00, 538.2, 646.0)">o</text><text xml:space="preserve" font-family="Helvetica-Light" font-size="32.0" fill="#000000" transform="matrix(1.00, 0.00, -0.00, -1.00, 556.0, 646.0)">r</text><text xml:space="preserve" font-family="Helvetica-Light" font-size="32.0" fill="#000000" transform="matrix(1.00, 0.00, -0.00, -1.00, 566.6, 646.0)"> </text><text xml:space="preserve" font-family="Helvetica-Light" font-size="32.0" fill="#000000" transform="matrix(1.00, 0.00, -0.00, -1.00, 575.5, 646.0)">d</text><text xml:space="preserve" font-family="Helvetica-Light" font-size="32.0" fill="#000000" transform="matrix(1.00, 0.00, -0.00, -1.00, 595.1, 646.0)">i</text><text xml:space="preserve" font-family="Helvetica-Light" font-size="32.0" fill="#000000" transform="matrix(1.00, 0.00, -0.00, -1.00, 602.2, 646.0)">s</text><text xml:space="preserve" font-family="Helvetica-Light" font-size="32.0" fill="#000000" transform="matrix(1.00, 0.00, -0.00, -1.00, 618.2, 646.0)">t</text><text xml:space="preserve" font-family="Helvetica-Light" font-size="32.0" fill="#000000" transform="matrix(1.00, 0.00, -0.00, -1.00, 627.1, 646.0)">r</text><text xml:space="preserve" font-family="Helvetica-Light" font-size="32.0" fill="#000000" transform="matrix(1.00, 0.00, -0.00, -1.00, 637.8, 646.0)">i</text><text xml:space="preserve" font-family="Helvetica-Light" font-size="32.0" fill="#000000" transform="matrix(1.00, 0.00, -0.00, -1.00, 644.9, 646.0)">b</text><text xml:space="preserve" font-family="Helvetica-Light" font-size="32.0" fill="#000000" transform="matrix(1.00, 0.00, -0.00, -1.00, 664.4, 646.0)">u</text><text xml:space="preserve" font-family="Helvetica-Light" font-size="32.0" fill="#000000" transform="matrix(1.00, 0.00, -0.00, -1.00, 682.2, 646.0)">t</text><text xml:space="preserve" font-family="Helvetica-Light" font-size="32.0" fill="#000000" transform="matrix(1.00, 0.00, -0.00, -1.00, 691.1, 646.0)">i</text><text xml:space="preserve" font-family="Helvetica-Light" font-size="32.0" fill="#000000" transform="matrix(1.00, 0.00, -0.00, -1.00, 698.2, 646.0)">o</text><text xml:space="preserve" font-family="Helvetica-Light" font-size="32.0" fill="#000000" transform="matrix(1.00, 0.00, -0.00, -1.00, 716.0, 646.0)">n</text><text xml:space="preserve" font-family="Helvetica-Light" font-size="32.0" fill="#000000" transform="matrix(1.00, 0.00, -0.00, -1.00, 733.8, 646.0)"> </text><image xlink:href="6CF47E564AF9623DDBE9E9F50C57CEB6.png" width="261.00" height="54.00" transform="matrix(1.00, 0.00, -0.00, -1.02, 519.0, 426.0)"></image><image xlink:href="A645D3BBBA8CA263AB6F0C6F8941178F.png" width="129.00" height="34.00" transform="matrix(1.00, 0.00, -0.00, -1.03, 172.0, 395.0)"></image><image xlink:href="805A5F3F7719832F49803195FB7FBB3A.png" width="147.00" height="67.00" transform="matrix(0.99, 0.00, -0.00, -1.00, 50.0, 213.0)"></image><image xlink:href="8ADF89E1E943FD2373083C9E9AB37A75.png" width="116.00" height="59.00" transform="matrix(1.00, 0.00, -0.00, -1.00, 319.0, 209.0)"></image><image xlink:href="50404F0C5D4A8C83CA9CC683D6F872C6.png" width="116.00" height="92.00" transform="matrix(1.00, 0.00, -0.00, -1.00, 811.0, 637.0)"></image><image xlink:href="9F40364587F93D44FEC35410C184EB41.png" width="147.00" height="45.00" transform="matrix(0.99, 0.00, -0.00, -1.00, 631.0, 558.0)"></image><image xlink:href="C21D21AA483F4D85797836006CCDE98F.png" width="112.00" height="88.00" transform="matrix(1.00, 0.00, -0.00, -1.00, 517.0, 347.0)"></image><text xml:space="preserve" font-family="Helvetica-Bold" font-weight="bold" font-size="24.0" fill="#929292" transform="matrix(1.00, 0.00, -0.00, -1.00, 65.0, 582.0)">A</text><text xml:space="preserve" font-family="Helvetica-Bold" font-weight="bold" font-size="24.0" fill="#929292" transform="matrix(1.00, 0.00, -0.00, -1.00, 82.3, 582.0)">p</text><text xml:space="preserve" font-family="Helvetica-Bold" font-weight="bold" font-size="24.0" fill="#929292" transform="matrix(1.00, 0.00, -0.00, -1.00, 97.0, 582.0)">a</text><text xml:space="preserve" font-family="Helvetica-Bold" font-weight="bold" font-size="24.0" fill="#929292" transform="matrix(1.00, 0.00, -0.00, -1.00, 110.3, 582.0)">c</text><text xml:space="preserve" font-family="Helvetica-Bold" font-weight="bold" font-size="24.0" fill="#929292" transform="matrix(1.00, 0.00, -0.00, -1.00, 123.7, 582.0)">h</text><text xml:space="preserve" font-family="Helvetica-Bold" font-weight="bold" font-size="24.0" fill="#929292" transform="matrix(1.00, 0.00, -0.00, -1.00, 138.4, 582.0)">e</text><text xml:space="preserve" font-family="Helvetica-Bold" font-weight="bold" font-size="24.0" fill="#929292" transform="matrix(1.00, 0.00, -0.00, -1.00, 151.7, 582.0)"> </text><text xml:space="preserve" font-family="Helvetica-Bold" font-weight="bold" font-size="24.0" fill="#929292" transform="matrix(1.00, 0.00, -0.00, -1.00, 158.4, 582.0)">D</text><text xml:space="preserve" font-family="Helvetica-Bold" font-weight="bold" font-size="24.0" fill="#929292" transform="matrix(1.00, 0.00, -0.00, -1.00, 175.7, 582.0)">a</text><text xml:space="preserve" font-family="Helvetica-Bold" font-weight="bold" font-size="24.0" fill="#929292" transform="matrix(1.00, 0.00, -0.00, -1.00, 189.1, 582.0)">t</text><text xml:space="preserve" font-family="Helvetica-Bold" font-weight="bold" font-size="24.0" fill="#929292" transform="matrix(1.00, 0.00, -0.00, -1.00, 197.0, 582.0)">a</text><text xml:space="preserve" font-family="Helvetica-Bold" font-weight="bold" font-size="24.0" fill="#929292" transform="matrix(1.00, 0.00, -0.00, -1.00, 210.4, 582.0)">F</text><text xml:space="preserve" font-family="Helvetica-Bold" font-weight="bold" font-size="24.0" fill="#929292" transform="matrix(1.00, 0.00, -0.00, -1.00, 225.1, 582.0)">u</text><text xml:space="preserve" font-family="Helvetica-Bold" font-weight="bold" font-size="24.0" fill="#929292" transform="matrix(1.00, 0.00, -0.00, -1.00, 239.7, 582.0)">™</text><image xlink:href="EC8BAFD63ABDE7C058AE9DD268721B54.png" width="66.00" height="124.00" transform="matrix(1.00, 0.00, -0.00, -0.99, 392.0, 382.0)"></image><image xlink:href="D40366F9ABEE9932E25D7E9847978EB8.png" width="171.00" height="45.00" transform="matrix(1.00, 0.00, -0.00, -1.00, 402.0, 598.0)"></image><image xlink:href="66FA95B06D142555A169AF797639B031.png" width="116.00" height="86.00" transform="matrix(1.00, 0.00, -0.00, -1.00, 802.0, 388.0)"></image><image xlink:href="B2F66DC376FDC0AC9F952E676E2B0C65.png" width="70.00" height="74.00" transform="matrix(0.99, 0.00, -0.00, -1.00, 51.0, 340.0)"></image><image xlink:href="AF553D626C95E4B941AFA49B76EC0B3D.png" width="137.00" height="35.00" transform="matrix(0.99, 0.00, -0.00, -1.00, 55.0, 461.0)"></image><image xlink:href="1F4CEF8439AD41EC61AB24C626A99ACE.png" width="126.00" height="25.00" transform="matrix(0.99, 0.00, -0.00, -1.00, 792.0, 167.0)"></image><image xlink:href="B1380334ECAE631F4C281BF6B4AFE41D.png" width="178.00" height="51.00" transform="matrix(1.00, 0.00, -0.00, -1.02, 512.0, 224.0)"></image><image xlink:href="2AAFF4CB09F55495B3870E894590F2E8.png" width="104.00" height="48.00" transform="matrix(0.99, 0.00, -0.00, -1.00, 761.0, 259.0)"></image><image xlink:href="0616A7FA38C33A0D1B6184E556AC4166.png" width="205.00" height="51.00" transform="matrix(1.00, 0.00, -0.00, -1.00, 52.0, 106.0)"></image><image xlink:href="76D1544C3B7BEA1A60B3C0A458E0E1D8.png" width="184.00" height="36.00" transform="matrix(1.00, 0.00, -0.00, -1.00, 173.0, 547.0)"></image><image xlink:href="8100F004253290DF1CCED3DE045D4597.png" width="182.00" height="54.00" transform="matrix(0.99, 0.00, -0.00, -1.00, 343.0, 107.0)"></image><image xlink:href="96FD068843C17D09E9B5CCDF408EC8F4.jpeg" width="147.00" height="58.00" transform="matrix(0.99, 0.00, -0.00, -1.00, 796.0, 489.0)"></image><image xlink:href="EA48602B3A9E2537229F4A69AA3C07DA.png" width="197.00" height="51.00" transform="matrix(1.00, 0.00, -0.00, -1.00, 747.0, 106.0)"></image><image xlink:href="5E4ADB2ECCC89F4C6B347886A9318555.png" width="104.00" height="76.00" transform="matrix(0.99, 0.00, -0.00, -1.00, 562.0, 137.0)"></image><image xlink:href="86297C4ED08A467D58B4110EEC31183D.png" width="48.00" height="76.00" transform="matrix(1.00, 0.00, -0.00, -1.00, 227.0, 313.0)"></image><image xlink:href="EF5C7CA23751F1B53ADB1F57B84C725F.png" width="137.00" height="43.00" transform="matrix(0.99, 0.00, -0.00, -1.00, 477.0, 502.0)"></image><image xlink:href="8EB07109DE6823583A07C703B4846162.png" width="145.00" height="58.00" transform="matrix(0.99, 0.00, -0.00, -1.00, 287.0, 482.0)"></image></g></svg>