<?xml version="1.0" encoding="UTF-8" standalone="no"?><svg xmlns="http://www.w3.org/2000/svg" xmlns:xlink="http://www.w3.org/1999/xlink" clip-rule="evenodd" stroke-miterlimit="4.00" viewBox="0 0 1024 768"><desc>SVG generated by Keynote</desc><defs></defs><g transform="matrix(1.00, 0.00, -0.00, -1.00, 0.0, 768.0)"><path d="M 0.0 768.0 L 1024.0 768.0 L 1024.0 0.0 L 0.0 0.0 Z M 0.0 768.0 " fill="#FEFFFF"></path><text xml:space="preserve" font-family="Helvetica" font-size="30.0" fill="#000000" transform="matrix(1.00, 0.00, -0.00, -1.00, 193.0, 108.0)">T</text><text xml:space="preserve" font-family="Helvetica" font-size="30.0" fill="#000000" transform="matrix(1.00, 0.00, -0.00, -1.00, 211.3, 108.0)">h</text><text xml:space="preserve" font-family="Helvetica" font-size="30.0" fill="#000000" transform="matrix(1.00, 0.00, -0.00, -1.00, 228.0, 108.0)">i</text><text xml:space="preserve" font-family="Helvetica" font-size="30.0" fill="#000000" transform="matrix(1.00, 0.00, -0.00, -1.00, 234.7, 108.0)">s</text><text xml:space="preserve" font-family="Helvetica" font-size="30.0" fill="#000000" transform="matrix(1.00, 0.00, -0.00, -1.00, 249.7, 108.0)"> </text><text xml:space="preserve" font-family="Helvetica" font-size="30.0" fill="#000000" transform="matrix(1.00, 0.00, -0.00, -1.00, 258.0, 108.0)">i</text><text xml:space="preserve" font-family="Helvetica" font-size="30.0" fill="#000000" transform="matrix(1.00, 0.00, -0.00, -1.00, 264.7, 108.0)">s</text><text xml:space="preserve" font-family="Helvetica" font-size="30.0" fill="#000000" transform="matrix(1.00, 0.00, -0.00, -1.00, 279.7, 108.0)"> </text><text xml:space="preserve" font-family="Helvetica" font-size="30.0" fill="#000000" transform="matrix(1.00, 0.00, -0.00, -1.00, 288.0, 108.0)">y</text><text xml:space="preserve" font-family="Helvetica" font-size="30.0" fill="#000000" transform="matrix(1.00, 0.00, -0.00, -1.00, 303.0, 108.0)">o</text><text xml:space="preserve" font-family="Helvetica" font-size="30.0" fill="#000000" transform="matrix(1.00, 0.00, -0.00, -1.00, 319.7, 108.0)">u</text><text xml:space="preserve" font-family="Helvetica" font-size="30.0" fill="#000000" transform="matrix(1.00, 0.00, -0.00, -1.00, 336.4, 108.0)">r</text><text xml:space="preserve" font-family="Helvetica" font-size="30.0" fill="#000000" transform="matrix(1.00, 0.00, -0.00, -1.00, 346.4, 108.0)"> </text><text xml:space="preserve" font-family="Helvetica" font-size="30.0" fill="#000000" transform="matrix(1.00, 0.00, -0.00, -1.00, 354.7, 108.0)">d</text><text xml:space="preserve" font-family="Helvetica" font-size="30.0" fill="#000000" transform="matrix(1.00, 0.00, -0.00, -1.00, 371.4, 108.0)">a</text><text xml:space="preserve" font-family="Helvetica" font-size="30.0" fill="#000000" transform="matrix(1.00, 0.00, -0.00, -1.00, 388.1, 108.0)">t</text><text xml:space="preserve" font-family="Helvetica" font-size="30.0" fill="#000000" transform="matrix(1.00, 0.00, -0.00, -1.00, 396.4, 108.0)">a</text><text xml:space="preserve" font-family="Helvetica" font-size="30.0" fill="#000000" transform="matrix(1.00, 0.00, -0.00, -1.00, 413.1, 108.0)"> </text><text xml:space="preserve" font-family="Helvetica" font-size="30.0" fill="#000000" transform="matrix(1.00, 0.00, -0.00, -1.00, 421.4, 108.0)">p</text><text xml:space="preserve" font-family="Helvetica" font-size="30.0" fill="#000000" transform="matrix(1.00, 0.00, -0.00, -1.00, 438.1, 108.0)">i</text><text xml:space="preserve" font-family="Helvetica" font-size="30.0" fill="#000000" transform="matrix(1.00, 0.00, -0.00, -1.00, 444.8, 108.0)">p</text><text xml:space="preserve" font-family="Helvetica" font-size="30.0" fill="#000000" transform="matrix(1.00, 0.00, -0.00, -1.00, 461.5, 108.0)">e</text><text xml:space="preserve" font-family="Helvetica" font-size="30.0" fill="#000000" transform="matrix(1.00, 0.00, -0.00, -1.00, 478.2, 108.0)">l</text><text xml:space="preserve" font-family="Helvetica" font-size="30.0" fill="#000000" transform="matrix(1.00, 0.00, -0.00, -1.00, 484.9, 108.0)">i</text><text xml:space="preserve" font-family="Helvetica" font-size="30.0" fill="#000000" transform="matrix(1.00, 0.00, -0.00, -1.00, 491.5, 108.0)">n</text><text xml:space="preserve" font-family="Helvetica" font-size="30.0" fill="#000000" transform="matrix(1.00, 0.00, -0.00, -1.00, 508.2, 108.0)">e</text><text xml:space="preserve" font-family="Helvetica" font-size="30.0" fill="#000000" transform="matrix(1.00, 0.00, -0.00, -1.00, 524.9, 108.0)"> </text><text xml:space="preserve" font-family="Helvetica" font-size="30.0" fill="#000000" transform="matrix(1.00, 0.00, -0.00, -1.00, 533.2, 108.0)">t</text><text xml:space="preserve" font-family="Helvetica" font-size="30.0" fill="#000000" transform="matrix(1.00, 0.00, -0.00, -1.00, 541.6, 108.0)">o</text><text xml:space="preserve" font-family="Helvetica" font-size="30.0" fill="#000000" transform="matrix(1.00, 0.00, -0.00, -1.00, 558.3, 108.0)">o</text><text xml:space="preserve" font-family="Helvetica" font-size="30.0" fill="#000000" transform="matrix(1.00, 0.00, -0.00, -1.00, 574.9, 108.0)">l</text><text xml:space="preserve" font-family="Helvetica" font-size="30.0" fill="#000000" transform="matrix(1.00, 0.00, -0.00, -1.00, 581.6, 108.0)">k</text><text xml:space="preserve" font-family="Helvetica" font-size="30.0" fill="#000000" transform="matrix(1.00, 0.00, -0.00, -1.00, 596.6, 108.0)">i</text><text xml:space="preserve" font-family="Helvetica" font-size="30.0" fill="#000000" transform="matrix(1.00, 0.00, -0.00, -1.00, 603.3, 108.0)">t</text><text xml:space="preserve" font-family="Helvetica" font-size="30.0" fill="#000000" transform="matrix(1.00, 0.00, -0.00, -1.00, 611.6, 108.0)"> </text><text xml:space="preserve" font-family="Helvetica" font-size="30.0" fill="#000000" transform="matrix(1.00, 0.00, -0.00, -1.00, 619.9, 108.0)">w</text><text xml:space="preserve" font-family="Helvetica" font-size="30.0" fill="#000000" transform="matrix(1.00, 0.00, -0.00, -1.00, 641.6, 108.0)">h</text><text xml:space="preserve" font-family="Helvetica" font-size="30.0" fill="#000000" transform="matrix(1.00, 0.00, -0.00, -1.00, 658.3, 108.0)">e</text><text xml:space="preserve" font-family="Helvetica" font-size="30.0" fill="#000000" transform="matrix(1.00, 0.00, -0.00, -1.00, 675.0, 108.0)">n</text><text xml:space="preserve" font-family="Helvetica" font-size="30.0" fill="#000000" transform="matrix(1.00, 0.00, -0.00, -1.00, 691.7, 108.0)"> </text><text xml:space="preserve" font-family="Helvetica" font-size="30.0" fill="#000000" transform="matrix(1.00, 0.00, -0.00, -1.00, 700.0, 108.0)">y</text><text xml:space="preserve" font-family="Helvetica" font-size="30.0" fill="#000000" transform="matrix(1.00, 0.00, -0.00, -1.00, 715.0, 108.0)">o</text><text xml:space="preserve" font-family="Helvetica" font-size="30.0" fill="#000000" transform="matrix(1.00, 0.00, -0.00, -1.00, 731.7, 108.0)">u</text><text xml:space="preserve" font-family="Helvetica" font-size="30.0" fill="#000000" transform="matrix(1.00, 0.00, -0.00, -1.00, 748.4, 108.0)"> </text><text xml:space="preserve" font-family="Helvetica" font-size="30.0" fill="#000000" transform="matrix(1.00, 0.00, -0.00, -1.00, 756.7, 108.0)">m</text><text xml:space="preserve" font-family="Helvetica" font-size="30.0" fill="#000000" transform="matrix(1.00, 0.00, -0.00, -1.00, 781.7, 108.0)">a</text><text xml:space="preserve" font-family="Helvetica" font-size="30.0" fill="#000000" transform="matrix(1.00, 0.00, -0.00, -1.00, 798.4, 108.0)">k</text><text xml:space="preserve" font-family="Helvetica" font-size="30.0" fill="#000000" transform="matrix(1.00, 0.00, -0.00, -1.00, 813.4, 108.0)">e</text><text xml:space="preserve" font-family="Helvetica" font-size="30.0" fill="#000000" transform="matrix(1.00, 0.00, -0.00, -1.00, 830.1, 108.0)"> </text><text xml:space="preserve" font-family="Helvetica" font-size="30.0" fill="#000000" transform="matrix(1.00, 0.00, -0.00, -1.00, 309.0, 72.0)">u</text><text xml:space="preserve" font-family="Helvetica" font-size="30.0" fill="#000000" transform="matrix(1.00, 0.00, -0.00, -1.00, 325.7, 72.0)">s</text><text xml:space="preserve" font-family="Helvetica" font-size="30.0" fill="#000000" transform="matrix(1.00, 0.00, -0.00, -1.00, 340.7, 72.0)">e</text><text xml:space="preserve" font-family="Helvetica" font-size="30.0" fill="#000000" transform="matrix(1.00, 0.00, -0.00, -1.00, 357.4, 72.0)"> </text><text xml:space="preserve" font-family="Helvetica" font-size="30.0" fill="#000000" transform="matrix(1.00, 0.00, -0.00, -1.00, 365.7, 72.0)">o</text><text xml:space="preserve" font-family="Helvetica" font-size="30.0" fill="#000000" transform="matrix(1.00, 0.00, -0.00, -1.00, 382.4, 72.0)">f</text><text xml:space="preserve" font-family="Helvetica" font-size="30.0" fill="#000000" transform="matrix(1.00, 0.00, -0.00, -1.00, 390.7, 72.0)"> </text><text xml:space="preserve" font-family="Helvetica" font-size="30.0" fill="#000000" transform="matrix(1.00, 0.00, -0.00, -1.00, 399.1, 72.0)">t</text><text xml:space="preserve" font-family="Helvetica" font-size="30.0" fill="#000000" transform="matrix(1.00, 0.00, -0.00, -1.00, 407.4, 72.0)">h</text><text xml:space="preserve" font-family="Helvetica" font-size="30.0" fill="#000000" transform="matrix(1.00, 0.00, -0.00, -1.00, 424.1, 72.0)">e</text><text xml:space="preserve" font-family="Helvetica" font-size="30.0" fill="#000000" transform="matrix(1.00, 0.00, -0.00, -1.00, 440.8, 72.0)"> </text><text xml:space="preserve" font-family="Helvetica" font-size="30.0" fill="#000000" transform="matrix(1.00, 0.00, -0.00, -1.00, 449.1, 72.0)">H</text><text xml:space="preserve" font-family="Helvetica" font-size="30.0" fill="#000000" transform="matrix(1.00, 0.00, -0.00, -1.00, 470.8, 72.0)">a</text><text xml:space="preserve" font-family="Helvetica" font-size="30.0" fill="#000000" transform="matrix(1.00, 0.00, -0.00, -1.00, 487.5, 72.0)">d</text><text xml:space="preserve" font-family="Helvetica" font-size="30.0" fill="#000000" transform="matrix(1.00, 0.00, -0.00, -1.00, 504.1, 72.0)">o</text><text xml:space="preserve" font-family="Helvetica" font-size="30.0" fill="#000000" transform="matrix(1.00, 0.00, -0.00, -1.00, 520.8, 72.0)">o</text><text xml:space="preserve" font-family="Helvetica" font-size="30.0" fill="#000000" transform="matrix(1.00, 0.00, -0.00, -1.00, 537.5, 72.0)">p</text><text xml:space="preserve" font-family="Helvetica" font-size="30.0" fill="#000000" transform="matrix(1.00, 0.00, -0.00, -1.00, 554.2, 72.0)"> </text><text xml:space="preserve" font-family="Helvetica" font-size="30.0" fill="#000000" transform="matrix(1.00, 0.00, -0.00, -1.00, 562.6, 72.0)">e</text><text xml:space="preserve" font-family="Helvetica" font-size="30.0" fill="#000000" transform="matrix(1.00, 0.00, -0.00, -1.00, 579.2, 72.0)">c</text><text xml:space="preserve" font-family="Helvetica" font-size="30.0" fill="#000000" transform="matrix(1.00, 0.00, -0.00, -1.00, 594.2, 72.0)">o</text><text xml:space="preserve" font-family="Helvetica" font-size="30.0" fill="#000000" transform="matrix(1.00, 0.00, -0.00, -1.00, 610.9, 72.0)">s</text><text xml:space="preserve" font-family="Helvetica" font-size="30.0" fill="#000000" transform="matrix(1.00, 0.00, -0.00, -1.00, 625.9, 72.0)">y</text><text xml:space="preserve" font-family="Helvetica" font-size="30.0" fill="#000000" transform="matrix(1.00, 0.00, -0.00, -1.00, 640.9, 72.0)">s</text><text xml:space="preserve" font-family="Helvetica" font-size="30.0" fill="#000000" transform="matrix(1.00, 0.00, -0.00, -1.00, 655.9, 72.0)">t</text><text xml:space="preserve" font-family="Helvetica" font-size="30.0" fill="#000000" transform="matrix(1.00, 0.00, -0.00, -1.00, 664.3, 72.0)">e</text><text xml:space="preserve" font-family="Helvetica" font-size="30.0" fill="#000000" transform="matrix(1.00, 0.00, -0.00, -1.00, 681.0, 72.0)">m</text><text xml:space="preserve" font-family="Helvetica" font-size="30.0" fill="#000000" transform="matrix(1.00, 0.00, -0.00, -1.00, 705.9, 72.0)">.</text><image xlink:href="../../87998CA3-C7AD-4865-AD01-C5D4471E2FC6/assets/F30842864825C3BB9C8831D4A02D7EE5.jpeg" width="320.00" height="320.00" transform="matrix(1.49, 0.00, -0.00, -1.49, 274.0, 658.0)"></image><text xml:space="preserve" font-family="Helvetica" font-size="10.0" fill="#000000" transform="matrix(1.00, 0.00, -0.00, -1.00, 258.0, 25.0)">h</text><text xml:space="preserve" font-family="Helvetica" font-size="10.0" fill="#000000" transform="matrix(1.00, 0.00, -0.00, -1.00, 263.6, 25.0)">t</text><text xml:space="preserve" font-family="Helvetica" font-size="10.0" fill="#000000" transform="matrix(1.00, 0.00, -0.00, -1.00, 266.3, 25.0)">t</text><text xml:space="preserve" font-family="Helvetica" font-size="10.0" fill="#000000" transform="matrix(1.00, 0.00, -0.00, -1.00, 269.1, 25.0)">p</text><text xml:space="preserve" font-family="Helvetica" font-size="10.0" fill="#000000" transform="matrix(1.00, 0.00, -0.00, -1.00, 274.7, 25.0)">:</text><text xml:space="preserve" font-family="Helvetica" font-size="10.0" fill="#000000" transform="matrix(1.00, 0.00, -0.00, -1.00, 277.5, 25.0)">/</text><text xml:space="preserve" font-family="Helvetica" font-size="10.0" fill="#000000" transform="matrix(1.00, 0.00, -0.00, -1.00, 280.2, 25.0)">/</text><text xml:space="preserve" font-family="Helvetica" font-size="10.0" fill="#000000" transform="matrix(1.00, 0.00, -0.00, -1.00, 283.0, 25.0)">w</text><text xml:space="preserve" font-family="Helvetica" font-size="10.0" fill="#000000" transform="matrix(1.00, 0.00, -0.00, -1.00, 290.2, 25.0)">w</text><text xml:space="preserve" font-family="Helvetica" font-size="10.0" fill="#000000" transform="matrix(1.00, 0.00, -0.00, -1.00, 297.5, 25.0)">w</text><text xml:space="preserve" font-family="Helvetica" font-size="10.0" fill="#000000" transform="matrix(1.00, 0.00, -0.00, -1.00, 304.1, 25.0)">.</text><text xml:space="preserve" font-family="Helvetica" font-size="10.0" fill="#000000" transform="matrix(1.00, 0.00, -0.00, -1.00, 306.9, 25.0)">o</text><text xml:space="preserve" font-family="Helvetica" font-size="10.0" fill="#000000" transform="matrix(1.00, 0.00, -0.00, -1.00, 312.5, 25.0)">v</text><text xml:space="preserve" font-family="Helvetica" font-size="10.0" fill="#000000" transform="matrix(1.00, 0.00, -0.00, -1.00, 317.5, 25.0)">e</text><text xml:space="preserve" font-family="Helvetica" font-size="10.0" fill="#000000" transform="matrix(1.00, 0.00, -0.00, -1.00, 323.0, 25.0)">r</text><text xml:space="preserve" font-family="Helvetica" font-size="10.0" fill="#000000" transform="matrix(1.00, 0.00, -0.00, -1.00, 326.4, 25.0)">s</text><text xml:space="preserve" font-family="Helvetica" font-size="10.0" fill="#000000" transform="matrix(1.00, 0.00, -0.00, -1.00, 331.4, 25.0)">t</text><text xml:space="preserve" font-family="Helvetica" font-size="10.0" fill="#000000" transform="matrix(1.00, 0.00, -0.00, -1.00, 334.1, 25.0)">o</text><text xml:space="preserve" font-family="Helvetica" font-size="10.0" fill="#000000" transform="matrix(1.00, 0.00, -0.00, -1.00, 339.7, 25.0)">c</text><text xml:space="preserve" font-family="Helvetica" font-size="10.0" fill="#000000" transform="matrix(1.00, 0.00, -0.00, -1.00, 344.7, 25.0)">k</text><text xml:space="preserve" font-family="Helvetica" font-size="10.0" fill="#000000" transform="matrix(1.00, 0.00, -0.00, -1.00, 349.7, 25.0)">.</text><text xml:space="preserve" font-family="Helvetica" font-size="10.0" fill="#000000" transform="matrix(1.00, 0.00, -0.00, -1.00, 352.5, 25.0)">c</text><text xml:space="preserve" font-family="Helvetica" font-size="10.0" fill="#000000" transform="matrix(1.00, 0.00, -0.00, -1.00, 357.5, 25.0)">o</text><text xml:space="preserve" font-family="Helvetica" font-size="10.0" fill="#000000" transform="matrix(1.00, 0.00, -0.00, -1.00, 363.0, 25.0)">m</text><text xml:space="preserve" font-family="Helvetica" font-size="10.0" fill="#000000" transform="matrix(1.00, 0.00, -0.00, -1.00, 371.4, 25.0)">/</text><text xml:space="preserve" font-family="Helvetica" font-size="10.0" fill="#000000" transform="matrix(1.00, 0.00, -0.00, -1.00, 374.2, 25.0)">S</text><text xml:space="preserve" font-family="Helvetica" font-size="10.0" fill="#000000" transform="matrix(1.00, 0.00, -0.00, -1.00, 380.8, 25.0)">p</text><text xml:space="preserve" font-family="Helvetica" font-size="10.0" fill="#000000" transform="matrix(1.00, 0.00, -0.00, -1.00, 386.4, 25.0)">o</text><text xml:space="preserve" font-family="Helvetica" font-size="10.0" fill="#000000" transform="matrix(1.00, 0.00, -0.00, -1.00, 391.9, 25.0)">r</text><text xml:space="preserve" font-family="Helvetica" font-size="10.0" fill="#000000" transform="matrix(1.00, 0.00, -0.00, -1.00, 395.3, 25.0)">t</text><text xml:space="preserve" font-family="Helvetica" font-size="10.0" fill="#000000" transform="matrix(1.00, 0.00, -0.00, -1.00, 398.1, 25.0)">s</text><text xml:space="preserve" font-family="Helvetica" font-size="10.0" fill="#000000" transform="matrix(1.00, 0.00, -0.00, -1.00, 403.1, 25.0)">-</text><text xml:space="preserve" font-family="Helvetica" font-size="10.0" fill="#000000" transform="matrix(1.00, 0.00, -0.00, -1.00, 406.4, 25.0)">T</text><text xml:space="preserve" font-family="Helvetica" font-size="10.0" fill="#000000" transform="matrix(1.00, 0.00, -0.00, -1.00, 411.4, 25.0)">o</text><text xml:space="preserve" font-family="Helvetica" font-size="10.0" fill="#000000" transform="matrix(1.00, 0.00, -0.00, -1.00, 416.9, 25.0)">y</text><text xml:space="preserve" font-family="Helvetica" font-size="10.0" fill="#000000" transform="matrix(1.00, 0.00, -0.00, -1.00, 421.9, 25.0)">s</text><text xml:space="preserve" font-family="Helvetica" font-size="10.0" fill="#000000" transform="matrix(1.00, 0.00, -0.00, -1.00, 426.9, 25.0)">/</text><text xml:space="preserve" font-family="Helvetica" font-size="10.0" fill="#000000" transform="matrix(1.00, 0.00, -0.00, -1.00, 429.7, 25.0)">W</text><text xml:space="preserve" font-family="Helvetica" font-size="10.0" fill="#000000" transform="matrix(1.00, 0.00, -0.00, -1.00, 439.0, 25.0)">e</text><text xml:space="preserve" font-family="Helvetica" font-size="10.0" fill="#000000" transform="matrix(1.00, 0.00, -0.00, -1.00, 444.5, 25.0)">n</text><text xml:space="preserve" font-family="Helvetica" font-size="10.0" fill="#000000" transform="matrix(1.00, 0.00, -0.00, -1.00, 450.1, 25.0)">g</text><text xml:space="preserve" font-family="Helvetica" font-size="10.0" fill="#000000" transform="matrix(1.00, 0.00, -0.00, -1.00, 455.7, 25.0)">e</text><text xml:space="preserve" font-family="Helvetica" font-size="10.0" fill="#000000" transform="matrix(1.00, 0.00, -0.00, -1.00, 461.2, 25.0)">r</text><text xml:space="preserve" font-family="Helvetica" font-size="10.0" fill="#000000" transform="matrix(1.00, 0.00, -0.00, -1.00, 464.6, 25.0)">-</text><text xml:space="preserve" font-family="Helvetica" font-size="10.0" fill="#000000" transform="matrix(1.00, 0.00, -0.00, -1.00, 467.9, 25.0)">G</text><text xml:space="preserve" font-family="Helvetica" font-size="10.0" fill="#000000" transform="matrix(1.00, 0.00, -0.00, -1.00, 475.7, 25.0)">i</text><text xml:space="preserve" font-family="Helvetica" font-size="10.0" fill="#000000" transform="matrix(1.00, 0.00, -0.00, -1.00, 477.9, 25.0)">a</text><text xml:space="preserve" font-family="Helvetica" font-size="10.0" fill="#000000" transform="matrix(1.00, 0.00, -0.00, -1.00, 483.5, 25.0)">n</text><text xml:space="preserve" font-family="Helvetica" font-size="10.0" fill="#000000" transform="matrix(1.00, 0.00, -0.00, -1.00, 489.0, 25.0)">t</text><text xml:space="preserve" font-family="Helvetica" font-size="10.0" fill="#000000" transform="matrix(1.00, 0.00, -0.00, -1.00, 491.8, 25.0)">-</text><text xml:space="preserve" font-family="Helvetica" font-size="10.0" fill="#000000" transform="matrix(1.00, 0.00, -0.00, -1.00, 495.1, 25.0)">8</text><text xml:space="preserve" font-family="Helvetica" font-size="10.0" fill="#000000" transform="matrix(1.00, 0.00, -0.00, -1.00, 500.7, 25.0)">5</text><text xml:space="preserve" font-family="Helvetica" font-size="10.0" fill="#000000" transform="matrix(1.00, 0.00, -0.00, -1.00, 506.3, 25.0)">-</text><text xml:space="preserve" font-family="Helvetica" font-size="10.0" fill="#000000" transform="matrix(1.00, 0.00, -0.00, -1.00, 509.6, 25.0)">t</text><text xml:space="preserve" font-family="Helvetica" font-size="10.0" fill="#000000" transform="matrix(1.00, 0.00, -0.00, -1.00, 512.4, 25.0)">o</text><text xml:space="preserve" font-family="Helvetica" font-size="10.0" fill="#000000" transform="matrix(1.00, 0.00, -0.00, -1.00, 517.9, 25.0)">o</text><text xml:space="preserve" font-family="Helvetica" font-size="10.0" fill="#000000" transform="matrix(1.00, 0.00, -0.00, -1.00, 523.5, 25.0)">l</text><text xml:space="preserve" font-family="Helvetica" font-size="10.0" fill="#000000" transform="matrix(1.00, 0.00, -0.00, -1.00, 525.7, 25.0)">-</text><text xml:space="preserve" font-family="Helvetica" font-size="10.0" fill="#000000" transform="matrix(1.00, 0.00, -0.00, -1.00, 529.0, 25.0)">1</text><text xml:space="preserve" font-family="Helvetica" font-size="10.0" fill="#000000" transform="matrix(1.00, 0.00, -0.00, -1.00, 534.6, 25.0)">4</text><text xml:space="preserve" font-family="Helvetica" font-size="10.0" fill="#000000" transform="matrix(1.00, 0.00, -0.00, -1.00, 540.2, 25.0)">1</text><text xml:space="preserve" font-family="Helvetica" font-size="10.0" fill="#000000" transform="matrix(1.00, 0.00, -0.00, -1.00, 545.7, 25.0)">-</text><text xml:space="preserve" font-family="Helvetica" font-size="10.0" fill="#000000" transform="matrix(1.00, 0.00, -0.00, -1.00, 549.1, 25.0)">f</text><text xml:space="preserve" font-family="Helvetica" font-size="10.0" fill="#000000" transform="matrix(1.00, 0.00, -0.00, -1.00, 551.8, 25.0)">u</text><text xml:space="preserve" font-family="Helvetica" font-size="10.0" fill="#000000" transform="matrix(1.00, 0.00, -0.00, -1.00, 557.4, 25.0)">n</text><text xml:space="preserve" font-family="Helvetica" font-size="10.0" fill="#000000" transform="matrix(1.00, 0.00, -0.00, -1.00, 563.0, 25.0)">c</text><text xml:space="preserve" font-family="Helvetica" font-size="10.0" fill="#000000" transform="matrix(1.00, 0.00, -0.00, -1.00, 568.0, 25.0)">t</text><text xml:space="preserve" font-family="Helvetica" font-size="10.0" fill="#000000" transform="matrix(1.00, 0.00, -0.00, -1.00, 570.7, 25.0)">i</text><text xml:space="preserve" font-family="Helvetica" font-size="10.0" fill="#000000" transform="matrix(1.00, 0.00, -0.00, -1.00, 573.0, 25.0)">o</text><text xml:space="preserve" font-family="Helvetica" font-size="10.0" fill="#000000" transform="matrix(1.00, 0.00, -0.00, -1.00, 578.5, 25.0)">n</text><text xml:space="preserve" font-family="Helvetica" font-size="10.0" fill="#000000" transform="matrix(1.00, 0.00, -0.00, -1.00, 584.1, 25.0)">-</text><text xml:space="preserve" font-family="Helvetica" font-size="10.0" fill="#000000" transform="matrix(1.00, 0.00, -0.00, -1.00, 587.4, 25.0)">S</text><text xml:space="preserve" font-family="Helvetica" font-size="10.0" fill="#000000" transform="matrix(1.00, 0.00, -0.00, -1.00, 594.1, 25.0)">w</text><text xml:space="preserve" font-family="Helvetica" font-size="10.0" fill="#000000" transform="matrix(1.00, 0.00, -0.00, -1.00, 601.3, 25.0)">i</text><text xml:space="preserve" font-family="Helvetica" font-size="10.0" fill="#000000" transform="matrix(1.00, 0.00, -0.00, -1.00, 603.5, 25.0)">s</text><text xml:space="preserve" font-family="Helvetica" font-size="10.0" fill="#000000" transform="matrix(1.00, 0.00, -0.00, -1.00, 608.5, 25.0)">s</text><text xml:space="preserve" font-family="Helvetica" font-size="10.0" fill="#000000" transform="matrix(1.00, 0.00, -0.00, -1.00, 613.5, 25.0)">-</text><text xml:space="preserve" font-family="Helvetica" font-size="10.0" fill="#000000" transform="matrix(1.00, 0.00, -0.00, -1.00, 616.9, 25.0)">A</text><text xml:space="preserve" font-family="Helvetica" font-size="10.0" fill="#000000" transform="matrix(1.00, 0.00, -0.00, -1.00, 623.5, 25.0)">r</text><text xml:space="preserve" font-family="Helvetica" font-size="10.0" fill="#000000" transform="matrix(1.00, 0.00, -0.00, -1.00, 626.9, 25.0)">m</text><text xml:space="preserve" font-family="Helvetica" font-size="10.0" fill="#000000" transform="matrix(1.00, 0.00, -0.00, -1.00, 635.2, 25.0)">y</text><text xml:space="preserve" font-family="Helvetica" font-size="10.0" fill="#000000" transform="matrix(1.00, 0.00, -0.00, -1.00, 640.2, 25.0)">-</text><text xml:space="preserve" font-family="Helvetica" font-size="10.0" fill="#000000" transform="matrix(1.00, 0.00, -0.00, -1.00, 643.5, 25.0)">K</text><text xml:space="preserve" font-family="Helvetica" font-size="10.0" fill="#000000" transform="matrix(1.00, 0.00, -0.00, -1.00, 650.2, 25.0)">n</text><text xml:space="preserve" font-family="Helvetica" font-size="10.0" fill="#000000" transform="matrix(1.00, 0.00, -0.00, -1.00, 655.8, 25.0)">i</text><text xml:space="preserve" font-family="Helvetica" font-size="10.0" fill="#000000" transform="matrix(1.00, 0.00, -0.00, -1.00, 658.0, 25.0)">f</text><text xml:space="preserve" font-family="Helvetica" font-size="10.0" fill="#000000" transform="matrix(1.00, 0.00, -0.00, -1.00, 660.8, 25.0)">e</text><text xml:space="preserve" font-family="Helvetica" font-size="10.0" fill="#000000" transform="matrix(1.00, 0.00, -0.00, -1.00, 666.3, 25.0)">/</text><text xml:space="preserve" font-family="Helvetica" font-size="10.0" fill="#000000" transform="matrix(1.00, 0.00, -0.00, -1.00, 669.1, 25.0)">3</text><text xml:space="preserve" font-family="Helvetica" font-size="10.0" fill="#000000" transform="matrix(1.00, 0.00, -0.00, -1.00, 674.7, 25.0)">3</text><text xml:space="preserve" font-family="Helvetica" font-size="10.0" fill="#000000" transform="matrix(1.00, 0.00, -0.00, -1.00, 680.2, 25.0)">6</text><text xml:space="preserve" font-family="Helvetica" font-size="10.0" fill="#000000" transform="matrix(1.00, 0.00, -0.00, -1.00, 685.8, 25.0)">1</text><text xml:space="preserve" font-family="Helvetica" font-size="10.0" fill="#000000" transform="matrix(1.00, 0.00, -0.00, -1.00, 691.4, 25.0)">4</text><text xml:space="preserve" font-family="Helvetica" font-size="10.0" fill="#000000" transform="matrix(1.00, 0.00, -0.00, -1.00, 696.9, 25.0)">5</text><text xml:space="preserve" font-family="Helvetica" font-size="10.0" fill="#000000" transform="matrix(1.00, 0.00, -0.00, -1.00, 702.5, 25.0)">7</text><text xml:space="preserve" font-family="Helvetica" font-size="10.0" fill="#000000" transform="matrix(1.00, 0.00, -0.00, -1.00, 708.1, 25.0)">/</text><text xml:space="preserve" font-family="Helvetica" font-size="10.0" fill="#000000" transform="matrix(1.00, 0.00, -0.00, -1.00, 710.8, 25.0)">p</text><text xml:space="preserve" font-family="Helvetica" font-size="10.0" fill="#000000" transform="matrix(1.00, 0.00, -0.00, -1.00, 716.4, 25.0)">r</text><text xml:space="preserve" font-family="Helvetica" font-size="10.0" fill="#000000" transform="matrix(1.00, 0.00, -0.00, -1.00, 719.7, 25.0)">o</text><text xml:space="preserve" font-family="Helvetica" font-size="10.0" fill="#000000" transform="matrix(1.00, 0.00, -0.00, -1.00, 725.3, 25.0)">d</text><text xml:space="preserve" font-family="Helvetica" font-size="10.0" fill="#000000" transform="matrix(1.00, 0.00, -0.00, -1.00, 730.9, 25.0)">u</text><text xml:space="preserve" font-family="Helvetica" font-size="10.0" fill="#000000" transform="matrix(1.00, 0.00, -0.00, -1.00, 736.4, 25.0)">c</text><text xml:space="preserve" font-family="Helvetica" font-size="10.0" fill="#000000" transform="matrix(1.00, 0.00, -0.00, -1.00, 741.4, 25.0)">t</text><text xml:space="preserve" font-family="Helvetica" font-size="10.0" fill="#000000" transform="matrix(1.00, 0.00, -0.00, -1.00, 744.2, 25.0)">.</text><text xml:space="preserve" font-family="Helvetica" font-size="10.0" fill="#000000" transform="matrix(1.00, 0.00, -0.00, -1.00, 747.0, 25.0)">h</text><text xml:space="preserve" font-family="Helvetica" font-size="10.0" fill="#000000" transform="matrix(1.00, 0.00, -0.00, -1.00, 752.5, 25.0)">t</text><text xml:space="preserve" font-family="Helvetica" font-size="10.0" fill="#000000" transform="matrix(1.00, 0.00, -0.00, -1.00, 755.3, 25.0)">m</text><text xml:space="preserve" font-family="Helvetica" font-size="10.0" fill="#000000" transform="matrix(1.00, 0.00, -0.00, -1.00, 763.6, 25.0)">l</text><g><clipPath id="clip-2"><path d="M 257.1 22.6 L 765.9 22.6 L 765.9 25.1 L 257.1 25.1 Z M 257.1 22.6 "></path></clipPath><g clip-path="url(#clip-2)"><path d="M 4.5 14.6 L 512.3 14.6 " fill="none" stroke="#000000" stroke-width="0.49" stroke-miterlimit="0.00" transform="matrix(1.00, 0.00, 0.00, -1.00, 253.6, 38.5)"></path></g></g></g></svg>