<?xml version="1.0" encoding="UTF-8" standalone="no"?><svg xmlns="http://www.w3.org/2000/svg" xmlns:xlink="http://www.w3.org/1999/xlink" clip-rule="evenodd" stroke-miterlimit="4.00" viewBox="0 0 1024 768"><desc>SVG generated by Keynote</desc><defs></defs><g transform="matrix(1.00, 0.00, -0.00, -1.00, 0.0, 768.0)"><path d="M 0.0 768.0 L 1024.0 768.0 L 1024.0 0.0 L 0.0 0.0 Z M 0.0 768.0 " fill="#FEFFFF"></path><text xml:space="preserve" font-family="Helvetica" font-size="30.0" fill="#000000" transform="matrix(1.00, 0.00, -0.00, -1.00, 212.0, 57.0)">T</text><text xml:space="preserve" font-family="Helvetica" font-size="30.0" fill="#000000" transform="matrix(1.00, 0.00, -0.00, -1.00, 230.3, 57.0)">h</text><text xml:space="preserve" font-family="Helvetica" font-size="30.0" fill="#000000" transform="matrix(1.00, 0.00, -0.00, -1.00, 247.0, 57.0)">i</text><text xml:space="preserve" font-family="Helvetica" font-size="30.0" fill="#000000" transform="matrix(1.00, 0.00, -0.00, -1.00, 253.7, 57.0)">s</text><text xml:space="preserve" font-family="Helvetica" font-size="30.0" fill="#000000" transform="matrix(1.00, 0.00, -0.00, -1.00, 268.7, 57.0)"> </text><text xml:space="preserve" font-family="Helvetica" font-size="30.0" fill="#000000" transform="matrix(1.00, 0.00, -0.00, -1.00, 277.0, 57.0)">i</text><text xml:space="preserve" font-family="Helvetica" font-size="30.0" fill="#000000" transform="matrix(1.00, 0.00, -0.00, -1.00, 283.7, 57.0)">s</text><text xml:space="preserve" font-family="Helvetica" font-size="30.0" fill="#000000" transform="matrix(1.00, 0.00, -0.00, -1.00, 298.7, 57.0)"> </text><text xml:space="preserve" font-family="Helvetica" font-size="30.0" fill="#000000" transform="matrix(1.00, 0.00, -0.00, -1.00, 307.0, 57.0)">y</text><text xml:space="preserve" font-family="Helvetica" font-size="30.0" fill="#000000" transform="matrix(1.00, 0.00, -0.00, -1.00, 322.0, 57.0)">o</text><text xml:space="preserve" font-family="Helvetica" font-size="30.0" fill="#000000" transform="matrix(1.00, 0.00, -0.00, -1.00, 338.7, 57.0)">u</text><text xml:space="preserve" font-family="Helvetica" font-size="30.0" fill="#000000" transform="matrix(1.00, 0.00, -0.00, -1.00, 355.4, 57.0)">r</text><text xml:space="preserve" font-family="Helvetica" font-size="30.0" fill="#000000" transform="matrix(1.00, 0.00, -0.00, -1.00, 365.4, 57.0)"> </text><text xml:space="preserve" font-family="Helvetica" font-size="30.0" fill="#000000" transform="matrix(1.00, 0.00, -0.00, -1.00, 373.7, 57.0)">h</text><text xml:space="preserve" font-family="Helvetica" font-size="30.0" fill="#000000" transform="matrix(1.00, 0.00, -0.00, -1.00, 390.4, 57.0)">o</text><text xml:space="preserve" font-family="Helvetica" font-size="30.0" fill="#000000" transform="matrix(1.00, 0.00, -0.00, -1.00, 407.1, 57.0)">m</text><text xml:space="preserve" font-family="Helvetica" font-size="30.0" fill="#000000" transform="matrix(1.00, 0.00, -0.00, -1.00, 432.1, 57.0)">e</text><text xml:space="preserve" font-family="Helvetica" font-size="30.0" fill="#000000" transform="matrix(1.00, 0.00, -0.00, -1.00, 448.8, 57.0)"> </text><text xml:space="preserve" font-family="Helvetica" font-size="30.0" fill="#000000" transform="matrix(1.00, 0.00, -0.00, -1.00, 457.1, 57.0)">g</text><text xml:space="preserve" font-family="Helvetica" font-size="30.0" fill="#000000" transform="matrix(1.00, 0.00, -0.00, -1.00, 473.8, 57.0)">r</text><text xml:space="preserve" font-family="Helvetica" font-size="30.0" fill="#000000" transform="matrix(1.00, 0.00, -0.00, -1.00, 483.8, 57.0)">o</text><text xml:space="preserve" font-family="Helvetica" font-size="30.0" fill="#000000" transform="matrix(1.00, 0.00, -0.00, -1.00, 500.5, 57.0)">w</text><text xml:space="preserve" font-family="Helvetica" font-size="30.0" fill="#000000" transform="matrix(1.00, 0.00, -0.00, -1.00, 522.1, 57.0)">n</text><text xml:space="preserve" font-family="Helvetica" font-size="30.0" fill="#000000" transform="matrix(1.00, 0.00, -0.00, -1.00, 538.8, 57.0)"> </text><text xml:space="preserve" font-family="Helvetica" font-size="30.0" fill="#000000" transform="matrix(1.00, 0.00, -0.00, -1.00, 547.2, 57.0)">d</text><text xml:space="preserve" font-family="Helvetica" font-size="30.0" fill="#000000" transform="matrix(1.00, 0.00, -0.00, -1.00, 563.9, 57.0)">a</text><text xml:space="preserve" font-family="Helvetica" font-size="30.0" fill="#000000" transform="matrix(1.00, 0.00, -0.00, -1.00, 580.5, 57.0)">t</text><text xml:space="preserve" font-family="Helvetica" font-size="30.0" fill="#000000" transform="matrix(1.00, 0.00, -0.00, -1.00, 588.9, 57.0)">a</text><text xml:space="preserve" font-family="Helvetica" font-size="30.0" fill="#000000" transform="matrix(1.00, 0.00, -0.00, -1.00, 605.6, 57.0)"> </text><text xml:space="preserve" font-family="Helvetica" font-size="30.0" fill="#000000" transform="matrix(1.00, 0.00, -0.00, -1.00, 613.9, 57.0)">p</text><text xml:space="preserve" font-family="Helvetica" font-size="30.0" fill="#000000" transform="matrix(1.00, 0.00, -0.00, -1.00, 630.6, 57.0)">i</text><text xml:space="preserve" font-family="Helvetica" font-size="30.0" fill="#000000" transform="matrix(1.00, 0.00, -0.00, -1.00, 637.3, 57.0)">p</text><text xml:space="preserve" font-family="Helvetica" font-size="30.0" fill="#000000" transform="matrix(1.00, 0.00, -0.00, -1.00, 653.9, 57.0)">e</text><text xml:space="preserve" font-family="Helvetica" font-size="30.0" fill="#000000" transform="matrix(1.00, 0.00, -0.00, -1.00, 670.6, 57.0)">l</text><text xml:space="preserve" font-family="Helvetica" font-size="30.0" fill="#000000" transform="matrix(1.00, 0.00, -0.00, -1.00, 677.3, 57.0)">i</text><text xml:space="preserve" font-family="Helvetica" font-size="30.0" fill="#000000" transform="matrix(1.00, 0.00, -0.00, -1.00, 684.0, 57.0)">n</text><text xml:space="preserve" font-family="Helvetica" font-size="30.0" fill="#000000" transform="matrix(1.00, 0.00, -0.00, -1.00, 700.7, 57.0)">e</text><text xml:space="preserve" font-family="Helvetica" font-size="30.0" fill="#000000" transform="matrix(1.00, 0.00, -0.00, -1.00, 717.4, 57.0)"> </text><text xml:space="preserve" font-family="Helvetica" font-size="30.0" fill="#000000" transform="matrix(1.00, 0.00, -0.00, -1.00, 725.7, 57.0)">t</text><text xml:space="preserve" font-family="Helvetica" font-size="30.0" fill="#000000" transform="matrix(1.00, 0.00, -0.00, -1.00, 734.0, 57.0)">o</text><text xml:space="preserve" font-family="Helvetica" font-size="30.0" fill="#000000" transform="matrix(1.00, 0.00, -0.00, -1.00, 750.7, 57.0)">o</text><text xml:space="preserve" font-family="Helvetica" font-size="30.0" fill="#000000" transform="matrix(1.00, 0.00, -0.00, -1.00, 767.4, 57.0)">l</text><text xml:space="preserve" font-family="Helvetica" font-size="30.0" fill="#000000" transform="matrix(1.00, 0.00, -0.00, -1.00, 774.1, 57.0)">k</text><text xml:space="preserve" font-family="Helvetica" font-size="30.0" fill="#000000" transform="matrix(1.00, 0.00, -0.00, -1.00, 789.1, 57.0)">i</text><text xml:space="preserve" font-family="Helvetica" font-size="30.0" fill="#000000" transform="matrix(1.00, 0.00, -0.00, -1.00, 795.7, 57.0)">t</text><text xml:space="preserve" font-family="Helvetica" font-size="30.0" fill="#000000" transform="matrix(1.00, 0.00, -0.00, -1.00, 804.1, 57.0)">.</text><image xlink:href="../../0CCD313C-5241-4B15-83A6-7DD6FDF7EC74/assets/F759A89C8D3BBD192F4BBA463FCA9390.png" width="313.00" height="595.00" transform="matrix(1.00, 0.00, -0.00, -1.00, 355.0, 721.0)"></image><text xml:space="preserve" font-family="Helvetica-Light" font-size="10.0" fill="#000000" transform="matrix(1.00, 0.00, -0.00, -1.00, 358.0, 20.0)">h</text><text xml:space="preserve" font-family="Helvetica-Light" font-size="10.0" fill="#000000" transform="matrix(1.00, 0.00, -0.00, -1.00, 363.6, 20.0)">t</text><text xml:space="preserve" font-family="Helvetica-Light" font-size="10.0" fill="#000000" transform="matrix(1.00, 0.00, -0.00, -1.00, 366.3, 20.0)">t</text><text xml:space="preserve" font-family="Helvetica-Light" font-size="10.0" fill="#000000" transform="matrix(1.00, 0.00, -0.00, -1.00, 369.1, 20.0)">p</text><text xml:space="preserve" font-family="Helvetica-Light" font-size="10.0" fill="#000000" transform="matrix(1.00, 0.00, -0.00, -1.00, 375.2, 20.0)">:</text><text xml:space="preserve" font-family="Helvetica-Light" font-size="10.0" fill="#000000" transform="matrix(1.00, 0.00, -0.00, -1.00, 378.0, 20.0)">/</text><text xml:space="preserve" font-family="Helvetica-Light" font-size="10.0" fill="#000000" transform="matrix(1.00, 0.00, -0.00, -1.00, 380.8, 20.0)">/</text><text xml:space="preserve" font-family="Helvetica-Light" font-size="10.0" fill="#000000" transform="matrix(1.00, 0.00, -0.00, -1.00, 383.6, 20.0)">w</text><text xml:space="preserve" font-family="Helvetica-Light" font-size="10.0" fill="#000000" transform="matrix(1.00, 0.00, -0.00, -1.00, 390.8, 20.0)">w</text><text xml:space="preserve" font-family="Helvetica-Light" font-size="10.0" fill="#000000" transform="matrix(1.00, 0.00, -0.00, -1.00, 398.0, 20.0)">w</text><text xml:space="preserve" font-family="Helvetica-Light" font-size="10.0" fill="#000000" transform="matrix(1.00, 0.00, -0.00, -1.00, 404.7, 20.0)">.</text><text xml:space="preserve" font-family="Helvetica-Light" font-size="10.0" fill="#000000" transform="matrix(1.00, 0.00, -0.00, -1.00, 407.5, 20.0)">h</text><text xml:space="preserve" font-family="Helvetica-Light" font-size="10.0" fill="#000000" transform="matrix(1.00, 0.00, -0.00, -1.00, 413.0, 20.0)">e</text><text xml:space="preserve" font-family="Helvetica-Light" font-size="10.0" fill="#000000" transform="matrix(1.00, 0.00, -0.00, -1.00, 418.6, 20.0)">a</text><text xml:space="preserve" font-family="Helvetica-Light" font-size="10.0" fill="#000000" transform="matrix(1.00, 0.00, -0.00, -1.00, 424.1, 20.0)">v</text><text xml:space="preserve" font-family="Helvetica-Light" font-size="10.0" fill="#000000" transform="matrix(1.00, 0.00, -0.00, -1.00, 429.1, 20.0)">y</text><text xml:space="preserve" font-family="Helvetica-Light" font-size="10.0" fill="#000000" transform="matrix(1.00, 0.00, -0.00, -1.00, 434.1, 20.0)">c</text><text xml:space="preserve" font-family="Helvetica-Light" font-size="10.0" fill="#000000" transform="matrix(1.00, 0.00, -0.00, -1.00, 439.7, 20.0)">o</text><text xml:space="preserve" font-family="Helvetica-Light" font-size="10.0" fill="#000000" transform="matrix(1.00, 0.00, -0.00, -1.00, 445.3, 20.0)">v</text><text xml:space="preserve" font-family="Helvetica-Light" font-size="10.0" fill="#000000" transform="matrix(1.00, 0.00, -0.00, -1.00, 450.3, 20.0)">e</text><text xml:space="preserve" font-family="Helvetica-Light" font-size="10.0" fill="#000000" transform="matrix(1.00, 0.00, -0.00, -1.00, 455.8, 20.0)">r</text><text xml:space="preserve" font-family="Helvetica-Light" font-size="10.0" fill="#000000" transform="matrix(1.00, 0.00, -0.00, -1.00, 459.2, 20.0)">i</text><text xml:space="preserve" font-family="Helvetica-Light" font-size="10.0" fill="#000000" transform="matrix(1.00, 0.00, -0.00, -1.00, 461.4, 20.0)">n</text><text xml:space="preserve" font-family="Helvetica-Light" font-size="10.0" fill="#000000" transform="matrix(1.00, 0.00, -0.00, -1.00, 466.9, 20.0)">c</text><text xml:space="preserve" font-family="Helvetica-Light" font-size="10.0" fill="#000000" transform="matrix(1.00, 0.00, -0.00, -1.00, 472.5, 20.0)">.</text><text xml:space="preserve" font-family="Helvetica-Light" font-size="10.0" fill="#000000" transform="matrix(1.00, 0.00, -0.00, -1.00, 475.3, 20.0)">c</text><text xml:space="preserve" font-family="Helvetica-Light" font-size="10.0" fill="#000000" transform="matrix(1.00, 0.00, -0.00, -1.00, 480.8, 20.0)">o</text><text xml:space="preserve" font-family="Helvetica-Light" font-size="10.0" fill="#000000" transform="matrix(1.00, 0.00, -0.00, -1.00, 486.4, 20.0)">m</text><text xml:space="preserve" font-family="Helvetica-Light" font-size="10.0" fill="#000000" transform="matrix(1.00, 0.00, -0.00, -1.00, 494.7, 20.0)">/</text><text xml:space="preserve" font-family="Helvetica-Light" font-size="10.0" fill="#000000" transform="matrix(1.00, 0.00, -0.00, -1.00, 497.5, 20.0)">h</text><text xml:space="preserve" font-family="Helvetica-Light" font-size="10.0" fill="#000000" transform="matrix(1.00, 0.00, -0.00, -1.00, 503.1, 20.0)">e</text><text xml:space="preserve" font-family="Helvetica-Light" font-size="10.0" fill="#000000" transform="matrix(1.00, 0.00, -0.00, -1.00, 508.6, 20.0)">a</text><text xml:space="preserve" font-family="Helvetica-Light" font-size="10.0" fill="#000000" transform="matrix(1.00, 0.00, -0.00, -1.00, 514.2, 20.0)">v</text><text xml:space="preserve" font-family="Helvetica-Light" font-size="10.0" fill="#000000" transform="matrix(1.00, 0.00, -0.00, -1.00, 519.2, 20.0)">y</text><text xml:space="preserve" font-family="Helvetica-Light" font-size="10.0" fill="#000000" transform="matrix(1.00, 0.00, -0.00, -1.00, 524.2, 20.0)">-</text><text xml:space="preserve" font-family="Helvetica-Light" font-size="10.0" fill="#000000" transform="matrix(1.00, 0.00, -0.00, -1.00, 527.5, 20.0)">c</text><text xml:space="preserve" font-family="Helvetica-Light" font-size="10.0" fill="#000000" transform="matrix(1.00, 0.00, -0.00, -1.00, 533.1, 20.0)">o</text><text xml:space="preserve" font-family="Helvetica-Light" font-size="10.0" fill="#000000" transform="matrix(1.00, 0.00, -0.00, -1.00, 538.6, 20.0)">v</text><text xml:space="preserve" font-family="Helvetica-Light" font-size="10.0" fill="#000000" transform="matrix(1.00, 0.00, -0.00, -1.00, 543.6, 20.0)">e</text><text xml:space="preserve" font-family="Helvetica-Light" font-size="10.0" fill="#000000" transform="matrix(1.00, 0.00, -0.00, -1.00, 549.2, 20.0)">r</text><text xml:space="preserve" font-family="Helvetica-Light" font-size="10.0" fill="#000000" transform="matrix(1.00, 0.00, -0.00, -1.00, 552.0, 20.0)">-</text><text xml:space="preserve" font-family="Helvetica-Light" font-size="10.0" fill="#000000" transform="matrix(1.00, 0.00, -0.00, -1.00, 555.3, 20.0)">t</text><text xml:space="preserve" font-family="Helvetica-Light" font-size="10.0" fill="#000000" transform="matrix(1.00, 0.00, -0.00, -1.00, 558.1, 20.0)">i</text><text xml:space="preserve" font-family="Helvetica-Light" font-size="10.0" fill="#000000" transform="matrix(1.00, 0.00, -0.00, -1.00, 560.3, 20.0)">t</text><text xml:space="preserve" font-family="Helvetica-Light" font-size="10.0" fill="#000000" transform="matrix(1.00, 0.00, -0.00, -1.00, 563.1, 20.0)">a</text><text xml:space="preserve" font-family="Helvetica-Light" font-size="10.0" fill="#000000" transform="matrix(1.00, 0.00, -0.00, -1.00, 568.6, 20.0)">n</text><text xml:space="preserve" font-family="Helvetica-Light" font-size="10.0" fill="#000000" transform="matrix(1.00, 0.00, -0.00, -1.00, 574.2, 20.0)">i</text><text xml:space="preserve" font-family="Helvetica-Light" font-size="10.0" fill="#000000" transform="matrix(1.00, 0.00, -0.00, -1.00, 576.4, 20.0)">u</text><text xml:space="preserve" font-family="Helvetica-Light" font-size="10.0" fill="#000000" transform="matrix(1.00, 0.00, -0.00, -1.00, 582.0, 20.0)">m</text><text xml:space="preserve" font-family="Helvetica-Light" font-size="10.0" fill="#000000" transform="matrix(1.00, 0.00, -0.00, -1.00, 590.3, 20.0)">-</text><text xml:space="preserve" font-family="Helvetica-Light" font-size="10.0" fill="#000000" transform="matrix(1.00, 0.00, -0.00, -1.00, 593.6, 20.0)">s</text><text xml:space="preserve" font-family="Helvetica-Light" font-size="10.0" fill="#000000" transform="matrix(1.00, 0.00, -0.00, -1.00, 598.6, 20.0)">p</text><text xml:space="preserve" font-family="Helvetica-Light" font-size="10.0" fill="#000000" transform="matrix(1.00, 0.00, -0.00, -1.00, 604.8, 20.0)">o</text><text xml:space="preserve" font-family="Helvetica-Light" font-size="10.0" fill="#000000" transform="matrix(1.00, 0.00, -0.00, -1.00, 610.3, 20.0)">r</text><text xml:space="preserve" font-family="Helvetica-Light" font-size="10.0" fill="#000000" transform="matrix(1.00, 0.00, -0.00, -1.00, 613.6, 20.0)">k</text><text xml:space="preserve" font-family="Helvetica-Light" font-size="10.0" fill="#000000" transform="matrix(1.00, 0.00, -0.00, -1.00, 618.6, 20.0)">-</text><text xml:space="preserve" font-family="Helvetica-Light" font-size="10.0" fill="#000000" transform="matrix(1.00, 0.00, -0.00, -1.00, 622.0, 20.0)">m</text><text xml:space="preserve" font-family="Helvetica-Light" font-size="10.0" fill="#000000" transform="matrix(1.00, 0.00, -0.00, -1.00, 630.3, 20.0)">u</text><text xml:space="preserve" font-family="Helvetica-Light" font-size="10.0" fill="#000000" transform="matrix(1.00, 0.00, -0.00, -1.00, 635.9, 20.0)">l</text><text xml:space="preserve" font-family="Helvetica-Light" font-size="10.0" fill="#000000" transform="matrix(1.00, 0.00, -0.00, -1.00, 638.1, 20.0)">t</text><text xml:space="preserve" font-family="Helvetica-Light" font-size="10.0" fill="#000000" transform="matrix(1.00, 0.00, -0.00, -1.00, 640.9, 20.0)">i</text><text xml:space="preserve" font-family="Helvetica-Light" font-size="10.0" fill="#000000" transform="matrix(1.00, 0.00, -0.00, -1.00, 643.1, 20.0)">-</text><text xml:space="preserve" font-family="Helvetica-Light" font-size="10.0" fill="#000000" transform="matrix(1.00, 0.00, -0.00, -1.00, 646.4, 20.0)">t</text><text xml:space="preserve" font-family="Helvetica-Light" font-size="10.0" fill="#000000" transform="matrix(1.00, 0.00, -0.00, -1.00, 649.2, 20.0)">o</text><text xml:space="preserve" font-family="Helvetica-Light" font-size="10.0" fill="#000000" transform="matrix(1.00, 0.00, -0.00, -1.00, 654.8, 20.0)">o</text><text xml:space="preserve" font-family="Helvetica-Light" font-size="10.0" fill="#000000" transform="matrix(1.00, 0.00, -0.00, -1.00, 660.3, 20.0)">l</text><text xml:space="preserve" font-family="Helvetica-Light" font-size="10.0" fill="#000000" transform="matrix(1.00, 0.00, -0.00, -1.00, 662.5, 20.0)">/</text></g></svg>